<svg width="24" height="15" viewBox="0 0 24 15" fill="none" xmlns="http://www.w3.org/2000/svg">
<path d="M23.5141 2.88069L11.995 14.7998L0.475854 2.88069C0.162922 2.55582 -0.00814049 2.11995 0.000298017 1.66896C0.00873653 1.21797 0.195985 0.7888 0.520851 0.475868C0.845717 0.162936 1.28159 -0.0081269 1.73258 0.000311609C2.18357 0.00875012 2.61274 0.195999 2.92567 0.520865L11.995 9.91017L21.0743 0.520865C21.3873 0.195999 21.8164 0.00875012 22.2674 0.000311609C22.7184 -0.0081269 23.1543 0.162936 23.4791 0.475868C23.804 0.7888 23.9913 1.21797 23.9997 1.66896C24.0081 2.11995 23.8371 2.55582 23.5241 2.88069H23.5141Z" fill="white"/>
</svg>
