<svg width="34" height="60" viewBox="0 0 34 60" fill="none" xmlns="http://www.w3.org/2000/svg">
<path fill-rule="evenodd" clip-rule="evenodd" d="M15.3284 0.248572C15.0063 0.446652 14.6899 1.00165 13.745 3.02705C13.0955 4.41911 11.8651 7.0346 11.0108 8.83929C8.19005 14.798 6.94577 17.432 5.03213 21.4955C3.99154 23.7054 2.43051 27.0106 1.56344 28.8403C-0.235143 32.6356 -0.337847 33.1029 0.527764 33.5541C0.841058 33.7175 1.88763 33.75 6.82261 33.75C10.0782 33.75 12.7417 33.7681 12.7417 33.7903C12.7417 33.8379 11.5412 37.4212 8.15603 47.4777C4.11842 59.4721 4.35545 58.7088 4.521 59.1875C4.66702 59.6097 5.21508 60 5.66217 60C6.29806 60 6.83709 59.4082 9.80993 55.4464C11.4958 53.1998 14.9377 48.6194 17.4585 45.2679C22.192 38.9744 23.8179 36.812 28.2842 30.8705C29.7238 28.9554 31.5987 26.4617 32.4508 25.3292C33.7806 23.5615 34 23.1998 34 22.7744C34 22.2951 33.7671 21.9568 33.2028 21.6159C33.0932 21.5496 30.3608 21.4654 27.1309 21.4286L21.2583 21.3616L25.1819 14.5982C32.8386 1.39996 32.6714 1.69969 32.6714 1.1771C32.6714 0.801429 32.5801 0.616071 32.2625 0.346741L31.8538 0L23.7924 0.000535675C16.1862 0.000937461 15.7084 0.0150001 15.3284 0.248572Z" fill="white"/>
</svg>
