<svg width="491" height="498" viewBox="0 0 491 498" fill="none" xmlns="http://www.w3.org/2000/svg">
<path d="M17.1686 423.901C7.68666 423.901 0 416.211 0 406.726L0 91.1465C0 81.6614 7.68667 73.9721 17.1687 73.9721L472.138 73.9721C481.62 73.9721 489.307 81.6614 489.307 91.1465V406.726C489.307 416.211 481.62 423.901 472.138 423.901L17.1686 423.901Z" fill="#F9FAFA"/>
<path d="M17.1686 423.901C7.68666 423.901 0 416.211 0 406.726L0 91.1465C0 81.6614 7.68667 73.9721 17.1687 73.9721L472.138 73.9721C481.62 73.9721 489.307 81.6614 489.307 91.1465V406.726C489.307 416.211 481.62 423.901 472.138 423.901L17.1686 423.901Z" fill="#F9F9F9"/>
<path d="M18.7082 422.493C9.29043 422.493 1.65579 414.861 1.65579 405.447L1.65579 92.2227C1.65579 82.8084 9.29044 75.1765 18.7083 75.1765L470.598 75.1765C480.016 75.1765 487.651 82.8084 487.651 92.2227V405.447C487.651 414.861 480.016 422.493 470.598 422.493L18.7082 422.493Z" stroke="#E7E7E7" stroke-width="3"/>
<rect x="40.7757" y="404.58" width="311.286" height="407.756" transform="rotate(-90 40.7757 404.58)" fill="white"/>
<rect x="39.8223" y="406.747" width="313.495" height="408.603" transform="rotate(-90 39.8223 406.747)" fill="#F5F5F5"/>
<path d="M22.5335 242.496C24.3114 242.496 25.7527 243.938 25.7527 245.716C25.7527 247.495 24.3114 248.937 22.5335 248.937C20.7557 248.937 19.3144 247.495 19.3144 245.716C19.3144 243.938 20.7557 242.496 22.5335 242.496Z" fill="url(#paint0_linear)"/>
<path d="M22.5604 243.826C23.5892 243.826 24.4232 244.66 24.4232 245.689C24.4232 246.718 23.5892 247.552 22.5604 247.552C21.5316 247.552 20.6975 246.718 20.6975 245.689C20.6975 244.66 21.5316 243.826 22.5604 243.826Z" fill="#F9FAFA"/>
<path fill-rule="evenodd" clip-rule="evenodd" d="M479.629 248.871C479.629 241.827 473.918 236.116 466.874 236.116C459.83 236.116 454.119 241.827 454.119 248.871C454.119 255.916 459.83 261.626 466.874 261.626C473.918 261.626 479.629 255.916 479.629 248.871Z" fill="url(#paint1_linear)"/>
<path fill-rule="evenodd" clip-rule="evenodd" d="M477.928 248.872C477.928 242.766 472.978 237.817 466.873 237.817C460.768 237.817 455.819 242.766 455.819 248.872C455.819 254.977 460.768 259.926 466.873 259.926C472.978 259.926 477.928 254.977 477.928 248.872Z" fill="#FAFAFA"/>
<rect x="38.3223" y="407.434" width="316.786" height="411.998" transform="rotate(-90 38.3223 407.434)" fill="#F5F5F5" stroke="#DCDCDC" stroke-width="3"/>
<defs>
<linearGradient id="paint0_linear" x1="25.7527" y1="242.496" x2="19.3144" y2="242.496" gradientUnits="userSpaceOnUse">
<stop stop-color="#EBEBEB"/>
<stop offset="1" stop-color="#C8C8C8"/>
</linearGradient>
<linearGradient id="paint1_linear" x1="479.629" y1="236.116" x2="454.119" y2="236.116" gradientUnits="userSpaceOnUse">
<stop stop-color="#EBEBEB"/>
<stop offset="1" stop-color="#C8C8C8"/>
</linearGradient>
</defs>
</svg>
