<svg width="610" height="375" viewBox="0 0 610 375" fill="none" xmlns="http://www.w3.org/2000/svg">
<path fill-rule="evenodd" clip-rule="evenodd" d="M88.7983 0.552519H518.098C527.488 0.552519 530.123 0.552519 534.166 1.91178C538.945 3.65851 542.732 7.44516 544.478 12.2244C545.838 16.2674 545.838 18.9022 545.838 28.2926C545.838 54.2996 545.838 313.401 545.838 313.401C545.838 322.792 545.838 325.426 544.478 329.469C542.732 334.249 538.945 338.035 534.166 339.782C530.123 341.141 527.488 341.141 518.098 341.141C492.091 341.141 88.7983 341.141 88.7983 341.141C79.4081 341.141 76.7727 341.141 72.7304 339.782C67.9508 338.035 64.1643 334.249 62.4176 329.469C61.0581 325.426 61.0581 322.792 61.0581 313.401C61.0581 287.394 61.0581 28.2926 61.0581 28.2926C61.0581 18.9022 61.0581 16.2674 62.4176 12.2244C64.1643 7.44516 67.9508 3.65851 72.7304 1.91178C76.7727 0.552519 79.4081 0.552519 88.7983 0.552519Z" fill="url(#paint0_linear)"/>
<path fill-rule="evenodd" clip-rule="evenodd" d="M90.7284 2.1056H516.164C525.47 2.1056 528.081 2.1056 532.087 3.45221C536.824 5.1827 540.576 8.93411 542.307 13.6689C543.655 17.6742 543.655 20.2845 543.655 29.5875C543.655 55.3525 543.655 312.043 543.655 312.043C543.655 321.346 543.655 323.956 542.307 327.961C540.576 332.696 536.824 336.448 532.087 338.178C528.081 339.525 525.47 339.525 516.164 339.525C490.391 339.525 90.7284 339.525 90.7284 339.525C81.4227 339.525 78.8111 339.525 74.8051 338.178C70.0686 336.448 66.3161 332.696 64.5851 327.961C63.238 323.956 63.238 321.346 63.238 312.043C63.238 286.278 63.238 29.5875 63.238 29.5875C63.238 20.2845 63.238 17.6742 64.5851 13.6689C66.3161 8.93411 70.0686 5.1827 74.8051 3.45221C78.8111 2.1056 81.4227 2.1056 90.7284 2.1056Z" stroke="#E7E7E7" stroke-width="3"/>
<path fill-rule="evenodd" clip-rule="evenodd" d="M302.634 12.1529C303.626 12.1529 304.43 12.9568 304.43 13.9484C304.43 14.94 303.626 15.7439 302.634 15.7439C301.643 15.7439 300.839 14.94 300.839 13.9484C300.839 12.9568 301.643 12.1529 302.634 12.1529Z" fill="#F2F2F2"/>
<g filter="url(#filter0_i)">
<path fill-rule="evenodd" clip-rule="evenodd" d="M6.93241 329.817H600.27V333.132H6.93241V329.817Z" fill="white"/>
<path fill-rule="evenodd" clip-rule="evenodd" d="M6.93241 329.817H600.27V333.132H6.93241V329.817Z" fill="url(#paint1_linear)" style="mix-blend-mode:multiply"/>
</g>
<g style="mix-blend-mode:multiply" opacity="0.1">
<path fill-rule="evenodd" clip-rule="evenodd" d="M578.17 329.817H600.269V333.132H578.17V329.817Z" fill="url(#paint2_linear)"/>
</g>
<g style="mix-blend-mode:multiply" opacity="0.1">
<path fill-rule="evenodd" clip-rule="evenodd" d="M6.93247 329.817H29.0307V333.132H6.93247V329.817Z" fill="url(#paint3_linear)"/>
</g>
<path fill-rule="evenodd" clip-rule="evenodd" d="M6.93163 333.132H600.269C596.763 335.322 565.66 344.305 462.155 341.971C453.014 341.971 195.41 341.695 138.969 341.695C73.4628 341.695 46.3455 341.958 21.5953 337.189C12.9307 335.519 8.59191 334.14 6.93163 333.132Z" fill="white"/>
<path fill-rule="evenodd" clip-rule="evenodd" d="M6.93163 333.132H600.269C596.763 335.322 565.66 344.305 462.155 341.971C453.014 341.971 195.41 341.695 138.969 341.695C73.4628 341.695 46.3455 341.958 21.5953 337.189C12.9307 335.519 8.59191 334.14 6.93163 333.132Z" fill="url(#paint4_linear)" style="mix-blend-mode:multiply"/>
<path fill-rule="evenodd" clip-rule="evenodd" d="M6.93163 333.132H600.269C596.763 335.322 565.66 344.305 462.155 341.971C453.014 341.971 195.41 341.695 138.969 341.695C73.4628 341.695 46.3455 341.958 21.5953 337.189C12.9307 335.519 8.59191 334.14 6.93163 333.132Z" fill="url(#paint5_linear)" style="mix-blend-mode:multiply"/>
<path fill-rule="evenodd" clip-rule="evenodd" d="M6.93163 333.132H600.269C596.763 335.322 565.66 344.305 462.155 341.971C453.014 341.971 195.41 341.695 138.969 341.695C73.4628 341.695 46.3455 341.958 21.5953 337.189C12.9307 335.519 8.59191 334.14 6.93163 333.132Z" fill="url(#paint6_linear)" style="mix-blend-mode:multiply"/>
<path fill-rule="evenodd" clip-rule="evenodd" d="M6.93163 333.132H600.269C596.763 335.322 565.66 344.305 462.155 341.971C453.014 341.971 195.41 341.695 138.969 341.695C73.4628 341.695 46.3455 341.958 21.5953 337.189C12.9307 335.519 8.59191 334.14 6.93163 333.132Z" fill="url(#paint7_linear)" style="mix-blend-mode:multiply"/>
<path fill-rule="evenodd" clip-rule="evenodd" d="M6.93163 333.132H600.269C596.763 335.322 565.66 344.305 462.155 341.971C453.014 341.971 195.41 341.695 138.969 341.695C73.4628 341.695 46.3455 341.958 21.5953 337.189C12.9307 335.519 8.59191 334.14 6.93163 333.132Z" fill="url(#paint8_linear)"/>
<g filter="url(#filter1_i)">
<path fill-rule="evenodd" clip-rule="evenodd" d="M246.697 329.815H257.747H349.178H360.227V332.853C360.227 334.018 349.178 334.234 349.178 334.234H257.747C257.747 334.234 246.697 334.018 246.697 332.853V329.815Z" fill="white"/>
</g>
<g style="mix-blend-mode:multiply" opacity="0.07">
<path fill-rule="evenodd" clip-rule="evenodd" d="M246.698 329.816H257.747V334.236C257.747 334.236 246.698 334.019 246.698 332.855C246.698 331.69 246.698 329.816 246.698 329.816Z" fill="url(#paint9_linear)"/>
</g>
<g style="mix-blend-mode:multiply" opacity="0.07">
<path fill-rule="evenodd" clip-rule="evenodd" d="M360.228 329.816H349.179V334.236C349.179 334.236 360.228 334.019 360.228 332.855C360.228 331.69 360.228 329.816 360.228 329.816Z" fill="url(#paint10_linear)"/>
</g>
<path d="M79.1739 20.8398H77.6414V22.3724V302.909V304.441H79.1739H528.032H529.565V302.909V22.3724V20.8398H528.032H79.1739Z" stroke="#E1E1E1" stroke-width="3.0651"/>
<defs>
<filter id="filter0_i" x="6.93243" y="329.817" width="593.337" height="3.31472" filterUnits="userSpaceOnUse" color-interpolation-filters="sRGB">
<feFlood flood-opacity="0" result="BackgroundImageFix"/>
<feBlend mode="normal" in="SourceGraphic" in2="BackgroundImageFix" result="shape"/>
<feColorMatrix in="SourceAlpha" type="matrix" values="0 0 0 0 0 0 0 0 0 0 0 0 0 0 0 0 0 0 127 0" result="hardAlpha"/>
<feOffset dy="1.53255"/>
<feComposite in2="hardAlpha" operator="arithmetic" k2="-1" k3="1"/>
<feColorMatrix type="matrix" values="0 0 0 0 0 0 0 0 0 0 0 0 0 0 0 0 0 0 0.02 0"/>
<feBlend mode="normal" in2="shape" result="effect1_innerShadow"/>
</filter>
<filter id="filter1_i" x="246.697" y="329.815" width="113.53" height="4.41962" filterUnits="userSpaceOnUse" color-interpolation-filters="sRGB">
<feFlood flood-opacity="0" result="BackgroundImageFix"/>
<feBlend mode="normal" in="SourceGraphic" in2="BackgroundImageFix" result="shape"/>
<feColorMatrix in="SourceAlpha" type="matrix" values="0 0 0 0 0 0 0 0 0 0 0 0 0 0 0 0 0 0 127 0" result="hardAlpha"/>
<feOffset dy="1.53255"/>
<feComposite in2="hardAlpha" operator="arithmetic" k2="-1" k3="1"/>
<feColorMatrix type="matrix" values="0 0 0 0 0 0 0 0 0 0 0 0 0 0 0 0 0 0 0.03 0"/>
<feBlend mode="normal" in2="shape" result="effect1_innerShadow"/>
</filter>
<linearGradient id="paint0_linear" x1="303.448" y1="0" x2="303.448" y2="341.694" gradientUnits="userSpaceOnUse">
<stop offset="0.880227" stop-color="#F1F1F1"/>
<stop offset="1" stop-color="#E4E4E4"/>
</linearGradient>
<linearGradient id="paint1_linear" x1="6.65625" y1="333.408" x2="600.546" y2="333.408" gradientUnits="userSpaceOnUse">
<stop stop-opacity="0.04"/>
<stop offset="1" stop-color="white" stop-opacity="0.04"/>
</linearGradient>
<linearGradient id="paint2_linear" x1="606.144" y1="329.063" x2="577.894" y2="329.063" gradientUnits="userSpaceOnUse">
<stop/>
<stop offset="1" stop-color="white"/>
<stop offset="1" stop-color="white"/>
</linearGradient>
<linearGradient id="paint3_linear" x1="6.65625" y1="333.408" x2="29.3069" y2="333.408" gradientUnits="userSpaceOnUse">
<stop/>
<stop offset="1" stop-color="white"/>
<stop offset="1" stop-color="white"/>
</linearGradient>
<linearGradient id="paint4_linear" x1="6.37939" y1="344.733" x2="600.822" y2="344.733" gradientUnits="userSpaceOnUse">
<stop stop-opacity="0.07"/>
<stop offset="1" stop-color="#EAEAEA" stop-opacity="0.07"/>
<stop offset="1" stop-color="white" stop-opacity="0.07"/>
</linearGradient>
<linearGradient id="paint5_linear" x1="6.37939" y1="344.733" x2="600.822" y2="344.733" gradientUnits="userSpaceOnUse">
<stop stop-opacity="0.07"/>
<stop offset="1" stop-color="#EAEAEA" stop-opacity="0.07"/>
<stop offset="1" stop-color="white" stop-opacity="0.07"/>
</linearGradient>
<linearGradient id="paint6_linear" x1="6.37939" y1="332.579" x2="6.37939" y2="344.733" gradientUnits="userSpaceOnUse">
<stop stop-opacity="0.07"/>
<stop offset="1" stop-color="white" stop-opacity="0.07"/>
</linearGradient>
<linearGradient id="paint7_linear" x1="6.37939" y1="332.579" x2="6.37939" y2="344.733" gradientUnits="userSpaceOnUse">
<stop stop-color="white" stop-opacity="0.05"/>
<stop offset="1" stop-opacity="0.05"/>
</linearGradient>
<linearGradient id="paint8_linear" x1="303.6" y1="332.579" x2="303.821" y2="352.549" gradientUnits="userSpaceOnUse">
<stop stop-color="#EBEBEB"/>
<stop offset="1" stop-color="#585858" stop-opacity="0"/>
</linearGradient>
<linearGradient id="paint9_linear" x1="246.146" y1="334.512" x2="258.023" y2="334.512" gradientUnits="userSpaceOnUse">
<stop/>
<stop offset="1" stop-color="white"/>
<stop offset="1" stop-color="white"/>
</linearGradient>
<linearGradient id="paint10_linear" x1="360.505" y1="329.264" x2="348.903" y2="329.264" gradientUnits="userSpaceOnUse">
<stop/>
<stop offset="1" stop-color="white"/>
<stop offset="1" stop-color="white"/>
</linearGradient>
</defs>
</svg>
