<svg width="16" height="16" viewBox="0 0 16 16" fill="none" xmlns="http://www.w3.org/2000/svg">
<path d="M3.63213 15.294V4.97517H0.202355V15.294H3.63213ZM1.91768 3.56546C3.11371 3.56546 3.85817 2.77309 3.85817 1.7829C3.83589 0.770374 3.11375 0 1.94038 0C0.767193 0 0 0.770389 0 1.7829C0 2.77314 0.744282 3.56546 1.89529 3.56546H1.91758H1.91768ZM5.53049 15.294H8.96027V9.53146C8.96027 9.22306 8.98255 8.91498 9.07312 8.69452C9.32107 8.07834 9.8854 7.44015 10.8328 7.44015C12.0739 7.44015 12.5704 8.38642 12.5704 9.77358V15.2939H16V9.37721C16 6.20767 14.3079 4.73291 12.0513 4.73291C10.2011 4.73291 9.38876 5.76712 8.93745 6.47152H8.96034V4.97495H5.53057C5.57558 5.94322 5.53057 15.2938 5.53057 15.2938L5.53049 15.294Z" fill="white"/>
</svg>
