<svg width="1438" height="431" viewBox="0 0 1438 431" fill="none" xmlns="http://www.w3.org/2000/svg">
<path d="M183.976 369.304C206.413 369.304 225.044 364.897 239.869 356.082C254.694 347.267 266.513 335.848 275.328 321.825C284.543 307.401 290.954 291.174 294.56 273.144C298.567 254.713 300.57 235.882 300.57 216.65V0.289978H368.483V216.65C368.483 245.899 365.077 273.545 358.266 299.588C351.455 325.231 340.637 347.868 325.812 367.501C310.987 386.733 291.755 401.958 268.116 413.177C244.877 424.396 216.831 430.005 183.976 430.005C149.919 430.005 121.071 424.195 97.432 412.576C74.1933 400.556 55.3619 384.73 40.938 365.097C26.5139 345.064 16.0966 322.226 9.68595 296.583C3.27528 270.94 0.0699463 244.296 0.0699463 216.65V0.289978H67.382V216.65C67.382 236.283 69.185 255.314 72.791 273.745C76.7976 291.775 83.2083 308.002 92.023 322.426C101.238 336.449 113.258 347.868 128.083 356.683C143.308 365.097 161.939 369.304 183.976 369.304Z" fill="#29303D" fill-opacity="0.3"/>
<path d="M482.044 427V0.289978H549.356V427H482.044Z" fill="#29303D" fill-opacity="0.3"/>
<path d="M847.729 369.304C870.166 369.304 888.797 364.897 903.622 356.082C918.447 347.267 930.266 335.848 939.081 321.825C948.296 307.401 954.707 291.174 958.313 273.144C962.319 254.713 964.323 235.882 964.323 216.65V0.289978H1032.24V216.65C1032.24 245.899 1028.83 273.545 1022.02 299.588C1015.21 325.231 1004.39 347.868 989.565 367.501C974.74 386.733 955.508 401.958 931.869 413.177C908.63 424.396 880.583 430.005 847.729 430.005C813.672 430.005 784.824 424.195 761.185 412.576C737.946 400.556 719.115 384.73 704.691 365.097C690.267 345.064 679.849 322.226 673.439 296.583C667.028 270.94 663.823 244.296 663.823 216.65V0.289978H731.135V216.65C731.135 236.283 732.938 255.314 736.544 273.745C740.55 291.775 746.961 308.002 755.776 322.426C764.991 336.449 777.011 347.868 791.836 356.683C807.061 365.097 825.692 369.304 847.729 369.304Z" fill="#29303D" fill-opacity="0.3"/>
<path d="M1172.24 0.289978L1290.64 168.57L1409.03 0.289978H1482.96L1326.7 216.65L1478.15 427H1404.23L1290.64 264.73L1177.05 427H1102.52L1254.58 216.65L1097.72 0.289978H1172.24Z" fill="#29303D" fill-opacity="0.3"/>
</svg>
