<svg width="24" height="15" viewBox="0 0 24 15" fill="none" xmlns="http://www.w3.org/2000/svg">
<path d="M0.485854 11.9191L12.005 0L23.5241 11.9191C23.8371 12.244 24.0081 12.6799 23.9997 13.1308C23.9913 13.5818 23.804 14.011 23.4791 14.3239C23.1543 14.6369 22.7184 14.8079 22.2674 14.7995C21.8164 14.7911 21.3873 14.6038 21.0743 14.2789L12.005 4.88964L2.92567 14.2789C2.61274 14.6038 2.18357 14.7911 1.73258 14.7995C1.28159 14.8079 0.845717 14.6369 0.520851 14.3239C0.195985 14.011 0.00873617 13.5818 0.000297656 13.1308C-0.00814086 12.6799 0.162922 12.244 0.475854 11.9191H0.485854Z" fill="white"/>
</svg>
